0
SECTION
2
HEADER
9
$INSUNITS
70
1
9
$ACADVER
1
AC1014
9
$HANDSEED
5
FFFF
0
ENDSEC
0
SECTION
2
TABLES
0
TABLE
2
VPORT
5
8
100
AcDbSymbolTable
0
ENDTAB
0
TABLE
2
LTYPE
5
5
100
AcDbSymbolTable
0
LTYPE
5
14
100
AcDbSymbolTableRecord
100
AcDbLinetypeTableRecord
2
BYBLOCK
70
0
0
LTYPE
5
15
100
AcDbSymbolTableRecord
100
AcDbLinetypeTableRecord
2
BYLAYER
70
0
0
ENDTAB
0
TABLE
2
LAYER
5
2
100
AcDbSymbolTable
70
2
0
LAYER
5
50
100
AcDbSymbolTableRecord
100
AcDbLayerTableRecord
2
0
70
0
6
CONTINUOUS
0
ENDTAB
0
TABLE
2
STYLE
5
3
100
AcDbSymbolTable
70
1
0
STYLE
5
11
100
AcDbSymbolTableRecord
100
AcDbTextStyleTableRecord
2
STANDARD
70
0
0
ENDTAB
0
TABLE
2
VIEW
5
6
100
AcDbSymbolTable
70
0
0
ENDTAB
0
TABLE
2
UCS
5
7
100
AcDbSymbolTable
70
0
0
ENDTAB
0
TABLE
2
APPID
5
9
100
AcDbSymbolTable
70
2
0
APPID
5
12
100
AcDbSymbolTableRecord
100
AcDbRegAppTableRecord
2
ACAD
70
0
0
ENDTAB
0
TABLE
2
DIMSTYLE
5
A
100
AcDbSymbolTable
70
1
0
ENDTAB
0
TABLE
2
BLOCK_RECORD
5
1
100
AcDbSymbolTable
70
1
0
BLOCK_RECORD
5
1F
100
AcDbSymbolTableRecord
100
AcDbBlockTableRecord
2
*MODEL_SPACE
0
BLOCK_RECORD
5
1B
100
AcDbSymbolTableRecord
100
AcDbBlockTableRecord
2
*PAPER_SPACE
0
ENDTAB
0
ENDSEC
0
SECTION
2
BLOCKS
0
BLOCK
5
20
100
AcDbEntity
100
AcDbBlockBegin
2
*MODEL_SPACE
0
ENDBLK
5
21
100
AcDbEntity
100
AcDbBlockEnd
0
BLOCK
5
1C
100
AcDbEntity
100
AcDbBlockBegin
2
*PAPER_SPACE
0
ENDBLK
5
1D
100
AcDbEntity
100
AcDbBlockEnd
0
ENDSEC
0
SECTION
2
ENTITIES
0
LWPOLYLINE
5
100
100
AcDbEntity
8
0
100
AcDbPolyline
90
68
70
1
43
0.0
10
-0.76142669644349914
20
-0.051742914299046559
42
0.55182955608452411
10
0.76142669644295913
20
-0.051742914299903596
42
-0.21156451556057063
10
0.81521721524675672
20
-0.015609160202149745
10
0.8376330159340416
20
-0.011656649746796612
42
-0.36397023426621911
10
0.92670027981027181
20
-0.063079658521721704
10
0.93385999223731009
20
-0.082750806744800565
42
-0.23122653744802416
10
0.9264706806835491
20
-0.1525982382352056
42
-0.0083866566806815434
10
0.90647377628490033
20
-0.18334495258712769
10
1.036790106179724
20
-0.30022377800751077
42
-0.17233248115970543
10
1.0431902179421231
20
-0.31198400729802278
10
1.0432578867992783
20
-0.31241125164738409
42
-0.41421356237309442
10
1.0266328092881805
20
-0.33529370776009165
10
1.0262055649388344
20
-0.33536137661724463
42
-0.17233248115972408
10
1.0130431789384862
20
-0.33290861932911187
10
0.86161484982340686
20
-0.24508796794042215
42
-0.060067781327337519
10
0.67692038175848146
20
-0.43059008093913548
10
0.79161060633701408
20
-0.61511669153403603
42
-0.18020997094860178
10
0.7943780266692938
20
-0.62880303366462242
10
0.7927623001860421
20
-0.63900432919555394
42
-0.41421356237309209
10
0.76987984407333487
20
-0.65562940670665193
10
0.75967854854239492
20
-0.6540136802233989
42
-0.18020997094857061
10
0.74751724358811056
20
-0.6471523947738772
10
0.60746323663541213
20
-0.48105365074486062
42
-0.057878531448150951
10
0.38291848027413061
20
-0.59608266795225562
10
0.45060720976691104
20
-0.84645162226498905
42
-0.18591941615275215
10
0.4491204889637998
20
-0.86075115384108625
10
0.43966561613092309
20
-0.8793073865911053
42
-0.4142135623730962
10
0.41276567565236472
20
-0.88804770708008163
10
0.39420944290208476
20
-0.8785928342470718
42
-0.1859194161527517
10
0.3846016067313564
20
-0.86789814275275312
10
0.2921997602418453
20
-0.62555896690778423
42
-0.052407779283093377
10
0.066750774634107418
20
-0.66328618837416431
10
0.047172619942651851
20
-1.0175369483494483
42
-0.18460208190687893
10
0.041345229495106592
20
-1.0305754406935852
10
0.014142135623777653
20
-1.0577785345649164
42
-0.41421356237309542
10
-0.014142135623684072
20
-1.0577785345649175
10
-0.041345229495015151
20
-1.0305754406935892
42
-0.18460208190681096
10
-0.047172619942561278
20
-1.0175369483494581
10
-0.066750774634108015
20
-0.66328618837416364
42
-0.052407779283093266
10
-0.29219976024184519
20
-0.62555896690778345
10
-0.38460160673139182
20
-0.86789814275279231
42
-0.18591941615195662
10
-0.39420944290206589
20
-0.87859283424708223
10
-0.41276567565223465
20
-0.88804770708010561
42
-0.41421356237484935
10
-0.43966561613087363
20
-0.87930738659110297
10
-0.4491204889637852
20
-0.86075115384087764
42
-0.18591941615195687
10
-0.45060720976686963
20
-0.84645162226483528
10
-0.3829184802741375
20
-0.59608266795227471
42
-0.057878531448150951
10
-0.60746323663542312
20
-0.4810536507448776
10
-0.74751724358810845
20
-0.64715239477387787
42
-0.18020997094852578
10
-0.75967854854238948
20
-0.65401368022339912
10
-0.76987984407332843
20
-0.65562940670665404
42
-0.41421356237318868
10
-0.7927623001860401
20
-0.63900432919555339
10
-0.79437802666929136
20
-0.62880303366461376
42
-0.18020997094853003
10
-0.79161060633701241
20
-0.61511669153403237
10
-0.676920381758499
20
-0.43059008093915968
42
-0.060067781327337519
10
-0.86161484982342973
20
-0.24508796794044138
10
-1.0130431789384837
20
-0.33290861932911092
42
-0.17233248115979713
10
-1.0262055649388375
20
-0.33536137661724291
10
-1.0266328092881902
20
-0.33529370776008866
42
-0.4142135623729149
10
-1.0432578867992837
20
-0.31241125164738848
10
-1.0431902179421297
20
-0.31198400729803499
42
-0.17233248115979358
10
-1.0367901061797298
20
-0.30022377800751648
10
-0.90647377628486103
20
-0.18334495258709699
42
-0.0083866566806897608
10
-0.92647068068352767
20
-0.15259823823514571
42
-0.231226537448014
10
-0.93385999223728844
20
-0.082750806744740779
10
-0.92670027980970149
20
-0.063079658520154902
42
-0.36397023427649156
10
-0.83763301593061268
20
-0.011656649745733884
10
-0.81521721524448398
20
-0.015609160201720864
42
-0.21156451555138037
0
ENDSEC
0
SECTION
2
OBJECTS
0
DICTIONARY
5
C
100
AcDbDictionary
3
ACAD_GROUP
350
D
3
ACAD_MLINESTYLE
350
17
0
DICTIONARY
5
D
100
AcDbDictionary
0
DICTIONARY
5
1A
330
C
100
AcDbDictionary
0
DICTIONARY
5
17
100
AcDbDictionary
0
ENDSEC
0
EOF
