0
SECTION
2
HEADER
9
$INSUNITS
70
1
9
$ACADVER
1
AC1014
9
$HANDSEED
5
FFFF
0
ENDSEC
0
SECTION
2
TABLES
0
TABLE
2
VPORT
5
8
100
AcDbSymbolTable
0
ENDTAB
0
TABLE
2
LTYPE
5
5
100
AcDbSymbolTable
0
LTYPE
5
14
100
AcDbSymbolTableRecord
100
AcDbLinetypeTableRecord
2
BYBLOCK
70
0
0
LTYPE
5
15
100
AcDbSymbolTableRecord
100
AcDbLinetypeTableRecord
2
BYLAYER
70
0
0
ENDTAB
0
TABLE
2
LAYER
5
2
100
AcDbSymbolTable
70
2
0
LAYER
5
50
100
AcDbSymbolTableRecord
100
AcDbLayerTableRecord
2
0
70
0
6
CONTINUOUS
0
ENDTAB
0
TABLE
2
STYLE
5
3
100
AcDbSymbolTable
70
1
0
STYLE
5
11
100
AcDbSymbolTableRecord
100
AcDbTextStyleTableRecord
2
STANDARD
70
0
0
ENDTAB
0
TABLE
2
VIEW
5
6
100
AcDbSymbolTable
70
0
0
ENDTAB
0
TABLE
2
UCS
5
7
100
AcDbSymbolTable
70
0
0
ENDTAB
0
TABLE
2
APPID
5
9
100
AcDbSymbolTable
70
2
0
APPID
5
12
100
AcDbSymbolTableRecord
100
AcDbRegAppTableRecord
2
ACAD
70
0
0
ENDTAB
0
TABLE
2
DIMSTYLE
5
A
100
AcDbSymbolTable
70
1
0
ENDTAB
0
TABLE
2
BLOCK_RECORD
5
1
100
AcDbSymbolTable
70
1
0
BLOCK_RECORD
5
1F
100
AcDbSymbolTableRecord
100
AcDbBlockTableRecord
2
*MODEL_SPACE
0
BLOCK_RECORD
5
1B
100
AcDbSymbolTableRecord
100
AcDbBlockTableRecord
2
*PAPER_SPACE
0
ENDTAB
0
ENDSEC
0
SECTION
2
BLOCKS
0
BLOCK
5
20
100
AcDbEntity
100
AcDbBlockBegin
2
*MODEL_SPACE
0
ENDBLK
5
21
100
AcDbEntity
100
AcDbBlockEnd
0
BLOCK
5
1C
100
AcDbEntity
100
AcDbBlockBegin
2
*PAPER_SPACE
0
ENDBLK
5
1D
100
AcDbEntity
100
AcDbBlockEnd
0
ENDSEC
0
SECTION
2
ENTITIES
0
LWPOLYLINE
5
100
100
AcDbEntity
8
0
100
AcDbPolyline
90
58
70
1
43
0.0
10
0.43966561613092309
20
-0.8793073865911053
10
0.4491204889637998
20
-0.86075115384108625
42
0.18591394100458128
10
0.45060732025853723
20
-0.84645203097069999
10
0.38303274040855256
20
-0.59648429355944166
42
0.057918288188261689
10
0.60770873719408236
20
-0.4813339175467643
10
0.74751682640953665
20
-0.64715189999965672
42
0.18021832340596952
10
0.75967854854239492
20
-0.65401368022339879
10
0.76987984407333487
20
-0.65562940670665193
42
0.41421356237309209
10
0.79276230018604199
20
-0.63900432919555394
10
0.7943780266692938
20
-0.62880303366462242
42
0.18021238047792654
10
0.79161050778106334
20
-0.6151165329677214
10
0.67710412785742935
20
-0.43088954829699883
42
0.060103131870609804
10
0.86185370323801558
20
-0.24522649065001537
10
1.0130431789384862
20
-0.33290861932911187
42
0.17233248115972408
10
1.0262055649388344
20
-0.33536137661724469
10
1.0266328092881805
20
-0.33529370776009165
42
0.41421356237309442
10
1.0432578867992783
20
-0.31241125164738409
10
1.0431902179421231
20
-0.31198400729802278
42
0.17232727309574519
10
1.0367904074011227
20
-0.30022404817411075
10
0.90666247996603511
20
-0.18350944769321659
42
0.047799274699812412
10
1.00621698283863
20
-0.00022217649283253811
42
0.66143565139086158
10
-1.0062169828386029
20
-0.00022217649276784794
42
0.047800239403898763
10
-0.9066601270412149
20
-0.18351293835709354
10
-1.0367900522513365
20
-0.30022372963980759
42
0.17233341356553283
10
-1.0431902179421297
20
-0.31198400729803499
10
-1.0432578867992837
20
-0.31241125164738848
42
0.4142135623729149
10
-1.0266328092881902
20
-0.33529370776008866
10
-1.0262055649388375
20
-0.33536137661724291
42
0.17233248115979716
10
-1.0130431789384837
20
-0.33290861932911098
10
-0.86185370323804167
20
-0.24522649065003105
42
0.06010266430987625
10
-0.67710572772637878
20
-0.43088828650433708
10
-0.79161060633701241
20
-0.61511669153403237
42
0.18020997094853003
10
-0.79437802666929136
20
-0.62880303366461376
10
-0.7927623001860401
20
-0.63900432919555339
42
0.41421356237318868
10
-0.76987984407332843
20
-0.65562940670665382
10
-0.75967854854238948
20
-0.65401368022339912
42
0.18020997094852581
10
-0.74751724358810856
20
-0.64715239477387776
10
-0.60770286639397975
20
-0.48133784255626694
42
0.057917931156876858
10
-0.38302758357176669
20
-0.59648622226249259
10
-0.45060720976686963
20
-0.84645162226483528
42
0.1859194161519569
10
-0.44912048896378531
20
-0.86075115384087764
10
-0.43966561613087363
20
-0.87930738659110297
42
0.41421356237484935
10
-0.41276567565223465
20
-0.88804770708010561
10
-0.39420944290206589
20
-0.87859283424708223
42
0.18591941615195662
10
-0.38460160673139171
20
-0.86789814275279231
10
-0.29235298177464419
20
-0.62596081580356733
42
0.052449895354307309
10
-0.066726133579033869
20
-0.66373204819210452
10
-0.047172619942561278
20
-1.0175369483494581
42
0.18460208190681091
10
-0.041345229495015082
20
-1.0305754406935892
10
-0.014142135623684072
20
-1.0577785345649175
42
0.41421356237309542
10
0.014142135623777754
20
-1.0577785345649164
10
0.041345229495106599
20
-1.0305754406935852
42
0.18460238081505453
10
0.047172621219475401
20
-1.0175369252601112
10
0.066725721856314535
20
-0.66373207336689777
42
0.052449989927325601
10
0.29235298177464464
20
-0.62596081580356755
10
0.3846016067313564
20
-0.86789814275275312
42
0.18591941615275173
10
0.39420944290208465
20
-0.87859283424707191
10
0.41276567565236472
20
-0.88804770708008163
42
0.4142135623730962
0
LWPOLYLINE
5
101
100
AcDbEntity
8
0
100
AcDbPolyline
90
2
70
1
43
0.0
10
-0.79167423059504938
20
-8.7419135797256413e-17
42
0.59639904411006539
10
0.79167423059504927
20
0
42
0.59610462479489357
0
CIRCLE
5
102
100
AcDbEntity
8
0
100
AcDbCircle
10
0
20
0
30
0
40
0.12499999999999999
210
0
220
0
230
1
0
ARC
5
103
100
AcDbEntity
8
0
100
AcDbCircle
10
0
20
0
30
0
40
0.49999999999999994
210
0
220
0
230
1
100
AcDbArc
50
118.34684849455914
51
241.76370281202088
0
ARC
5
104
100
AcDbEntity
8
0
100
AcDbCircle
10
0
20
0
30
0
40
0.49999999999999994
210
0
220
0
230
1
100
AcDbArc
50
-61.76370281202086
51
61.653151505440853
0
CIRCLE
5
105
100
AcDbEntity
8
0
100
AcDbCircle
10
0
20
0
30
0
40
0.34987963782637299
210
0
220
0
230
1
0
CIRCLE
5
106
100
AcDbEntity
8
0
100
AcDbCircle
10
0
20
0
30
0
40
0.32510156096376086
210
0
220
0
230
1
0
ENDSEC
0
SECTION
2
OBJECTS
0
DICTIONARY
5
C
100
AcDbDictionary
3
ACAD_GROUP
350
D
3
ACAD_MLINESTYLE
350
17
0
DICTIONARY
5
D
100
AcDbDictionary
0
DICTIONARY
5
1A
330
C
100
AcDbDictionary
0
DICTIONARY
5
17
100
AcDbDictionary
0
ENDSEC
0
EOF
