<?xml version="1.0" encoding="UTF-8" standalone="no"?>
<svg
   viewBox="0 0 47.999999 48.000001"
   width="48"
   height="48"
   version="1.1"
   id="svg1288"
   sodipodi:docname="eye_open.svg"
   inkscape:version="1.2.2 (732a01da63, 2022-12-09)"
   xmlns:inkscape="http://www.inkscape.org/namespaces/inkscape"
   xmlns:sodipodi="http://sodipodi.sourceforge.net/DTD/sodipodi-0.dtd"
   xmlns="http://www.w3.org/2000/svg"
   xmlns:svg="http://www.w3.org/2000/svg">
  <sodipodi:namedview
     id="namedview1290"
     pagecolor="#ffffff"
     bordercolor="#000000"
     borderopacity="0.25"
     inkscape:showpageshadow="2"
     inkscape:pageopacity="0.0"
     inkscape:pagecheckerboard="0"
     inkscape:deskcolor="#d1d1d1"
     showgrid="false"
     inkscape:zoom="8.2457351"
     inkscape:cx="14.249791"
     inkscape:cy="57.059801"
     inkscape:window-width="1278"
     inkscape:window-height="1360"
     inkscape:window-x="3833"
     inkscape:window-y="0"
     inkscape:window-maximized="0"
     inkscape:current-layer="g1286" />
  <desc
     id="desc1256">eye_open.dxf - scale = 25.400000, origin = (0.000000, 0.000000), method = file</desc>
  <defs
     id="defs1270">
    <marker
       id="DistanceX"
       orient="auto"
       refX="0"
       refY="0"
       style="overflow:visible">
      <path
         d="M 3,-3 -3,3 M 0,-5 V 5"
         style="stroke:#000000;stroke-width:0.5"
         id="path1258" />
    </marker>
    <pattern
       id="Hatch"
       patternUnits="userSpaceOnUse"
       width="8"
       height="8"
       x="0"
       y="0">
      <path
         d="M8 4 l-4,4"
         stroke="#000000"
         stroke-width="0.25"
         linecap="square"
         id="path1261" />
      <path
         d="M6 2 l-4,4"
         stroke="#000000"
         stroke-width="0.25"
         linecap="square"
         id="path1263" />
      <path
         d="M4 0 l-4,4"
         stroke="#000000"
         stroke-width="0.25"
         linecap="square"
         id="path1265" />
    </pattern>
    <symbol
       id="*MODEL_SPACE" />
    <symbol
       id="*PAPER_SPACE" />
  </defs>
  <g
     inkscape:groupmode="layer"
     inkscape:label="0"
     id="g1286"
     transform="translate(-50,-50)">
    <path
       d="m 63.938349,54.357697 -0.216376,0.426746 a 0.45770081,0.45994774 0 0 0 -0.03403,0.328843 l 1.546447,5.748605 a 25.022615,25.145456 0 0 0 -5.141719,2.648157 l -3.199513,-3.813381 a 0.45770081,0.45994774 0 0 0 -0.27832,-0.157802 l -0.233458,-0.03716 a 0.45770081,0.45994774 0 0 0 -0.523665,0.382335 l -0.03698,0.234601 a 0.45770081,0.45994774 0 0 0 0.06334,0.314756 l 2.620482,4.236739 a 25.022615,25.145456 0 0 0 -4.228002,4.269763 l -3.459977,-2.016458 a 0.45770081,0.45994774 0 0 0 -0.301222,-0.0564 l -0.0098,0.0017 a 0.45770081,0.45994774 0 0 0 -0.380466,0.526235 l 0.0014,0.0098 a 0.45770081,0.45994774 0 0 0 0.14646,0.270448 l 2.977983,2.684133 a 25.022615,25.145456 0 0 0 -2.278309,4.215125 25.022615,25.145456 0 0 0 46.054632,0 25.022615,25.145456 0 0 0 -2.278363,-4.215208 l 2.978088,-2.684103 a 0.45770081,0.45994774 0 0 0 0.146469,-0.270404 l 0.0014,-0.0098 a 0.45770081,0.45994774 0 0 0 -0.380463,-0.526236 l -0.0098,-0.0017 a 0.45770081,0.45994774 0 0 0 -0.301222,0.0564 l -3.459978,2.016458 a 25.022615,25.145456 0 0 0 -4.227905,-4.269722 l 2.620447,-4.236773 a 0.45770081,0.45994774 0 0 0 0.06333,-0.314751 l -0.03698,-0.234601 a 0.45770081,0.45994774 0 0 0 -0.523667,-0.382335 l -0.233456,0.03716 a 0.45770081,0.45994774 0 0 0 -0.278313,0.15779 L 87.907186,63.50996 A 25.022615,25.145456 0 0 0 82.76549,60.861847 l 1.546564,-5.748552 a 0.45770081,0.45994774 0 0 0 -0.03402,-0.328852 l -0.216373,-0.426746 a 0.45770081,0.45994774 0 0 0 -0.615607,-0.201004 l -0.424661,0.217438 a 0.45770081,0.45994774 0 0 0 -0.219875,0.24595 l -2.111113,5.563925 A 25.022615,25.145456 0 0 0 75.526921,59.315368 L 75.079438,51.17878 a 0.45770081,0.45994774 0 0 0 -0.133361,-0.299853 l -0.622544,-0.6256 a 0.45770081,0.45994774 0 0 0 -0.647287,0 l -0.622544,0.6256 a 0.45770081,0.45994774 0 0 0 -0.133361,0.299853 l -0.447471,8.136586 a 25.022615,25.145456 0 0 0 -5.163491,0.86864 L 65.19826,54.620081 a 0.45770081,0.45994774 0 0 0 -0.219875,-0.24595 l -0.424661,-0.217438 a 0.45770081,0.45994774 0 0 0 -0.615604,0.201004 z"
       style="fill:#b2b2b2;fill-opacity:1;stroke:#460000;stroke-width:0.238971;stroke-opacity:1"
       id="path1272" />
    <path
       d="m 92.117609,74.579469 a 20.591701,20.692789 0 0 0 -36.234993,0 20.596536,20.697648 0 0 0 36.234993,0 z"
       style="fill:#320000;fill-opacity:1;stroke:#460000;stroke-width:0.238971;stroke-opacity:1"
       id="path1274" />
    <path
       d="M 79.433113,84.699348 A 11.442521,11.498694 0 0 0 79.413685,64.449075"
       style="fill:none;fill-opacity:1;stroke:#460000;stroke-width:0.238971;stroke-opacity:1"
       id="path1278" />
    <path
       d="m 68.586555,64.449075 a 11.442521,11.498694 0 0 0 -0.01945,20.250273"
       style="fill:none;stroke:#460000;stroke-width:0.238971;stroke-opacity:1"
       id="path1280" />
    <path
       d="m 62.714592,74.579469 a 11.285521,11.340923 0 0 0 22.571042,0 11.285521,11.340923 0 0 0 -22.571042,0 z"
       style="fill:#b2b2b2;fill-opacity:1;stroke:#460000;stroke-width:0.336818;stroke-opacity:1"
       id="path1282" />
    <path
       d="m 66.560152,74.579469 a 7.4399627,7.4764868 0 0 0 14.879924,0 7.4399627,7.4764868 0 0 0 -14.879924,0 z"
       style="fill:#aa0000;fill-opacity:1;stroke:#460000;stroke-width:0.238971;stroke-opacity:1"
       id="path1284" />
    <path
       d="m 71.139484,74.579469 a 2.8606302,2.8746735 0 0 0 5.72126,0 2.8606302,2.8746735 0 0 0 -5.72126,0 z"
       style="fill:#460000;fill-opacity:1;stroke:#460000;stroke-width:0.238971;stroke-opacity:1"
       id="path1276" />
  </g>
</svg>
