<?xml version="1.0" encoding="UTF-8" standalone="no"?>
<svg
   viewBox="0 0 47.999999 48.000002"
   width="48"
   height="48"
   version="1.1"
   id="svg22"
   sodipodi:docname="eye_closed.svg"
   inkscape:version="1.2.2 (732a01da63, 2022-12-09)"
   xmlns:inkscape="http://www.inkscape.org/namespaces/inkscape"
   xmlns:sodipodi="http://sodipodi.sourceforge.net/DTD/sodipodi-0.dtd"
   xmlns="http://www.w3.org/2000/svg"
   xmlns:svg="http://www.w3.org/2000/svg">
  <sodipodi:namedview
     id="namedview24"
     pagecolor="#ffffff"
     bordercolor="#000000"
     borderopacity="0.25"
     inkscape:showpageshadow="2"
     inkscape:pageopacity="0.0"
     inkscape:pagecheckerboard="0"
     inkscape:deskcolor="#d1d1d1"
     showgrid="false"
     inkscape:zoom="14.638496"
     inkscape:cx="27.53015"
     inkscape:cy="27.42768"
     inkscape:window-width="1278"
     inkscape:window-height="1360"
     inkscape:window-x="2553"
     inkscape:window-y="0"
     inkscape:window-maximized="0"
     inkscape:current-layer="g20" />
  <desc
     id="desc2">eye_closed.dxf - scale = 25.400000, origin = (0.000000, 0.000000), method = file</desc>
  <defs
     id="defs16" />
  <g
     inkscape:groupmode="layer"
     inkscape:label="0"
     id="g20"
     style="display:inline"
     transform="translate(-50,-50)">
    <path
       d="m 56.57399,75.050433 a 20.597444,20.307213 0 0 0 34.852101,0 1.8308839,1.8050856 0 0 1 1.231047,-0.815299 l 0.513012,-0.0892 a 1.8308839,1.8050856 0 0 1 2.0384,1.160279 l 0.163856,0.443856 a 1.8308839,1.8050856 0 0 1 -0.169109,1.576006 25.023715,24.671116 0 0 1 -0.457655,0.693754 l 2.98243,2.637204 a 0.45772097,0.45127142 0 0 1 0.14647,0.265352 l 10e-4,0.0096 a 0.45772097,0.45127142 0 0 1 -0.38048,0.516305 l -0.01,0.0017 a 0.45772097,0.45127142 0 0 1 -0.30124,-0.05534 L 93.718231,79.4131 a 25.023715,24.671116 0 0 1 -4.226926,4.185534 l 2.624807,4.163575 a 0.45772097,0.45127142 0 0 1 0.06334,0.308814 l -0.03698,0.230176 a 0.45772097,0.45127142 0 0 1 -0.523686,0.37512 l -0.233469,-0.03646 a 0.45772097,0.45127142 0 0 1 -0.27761,-0.154837 l -3.205288,-3.747767 a 25.023715,24.671116 0 0 1 -5.138947,2.595461 l 1.54913,5.649219 a 0.45772097,0.45127142 0 0 1 -0.03402,0.322653 l -0.216383,0.418689 a 0.45772097,0.45127142 0 0 1 -0.615629,0.197217 l -0.424709,-0.213292 a 0.45772097,0.45127142 0 0 1 -0.21989,-0.24131 l -2.114704,-5.468041 a 25.023715,24.671116 0 0 1 -5.159647,0.851261 l -0.448061,7.993158 a 0.45772097,0.45127142 0 0 1 -0.133371,0.294201 l -0.622566,0.613792 a 0.45772097,0.45127142 0 0 1 -0.647317,0 L 73.053739,97.136471 A 0.45772097,0.45127142 0 0 1 72.920364,96.84227 l -0.44806,-7.993158 a 25.023715,24.671116 0 0 1 -5.159643,-0.851261 l -2.114707,5.468041 a 0.45772097,0.45127142 0 0 1 -0.219891,0.24131 l -0.424681,0.213335 A 0.45772097,0.45127142 0 0 1 63.93775,93.723319 L 63.721366,93.30463 a 0.45772097,0.45127142 0 0 1 -0.03402,-0.322653 l 1.549132,-5.649219 a 25.023715,24.671116 0 0 1 -5.138947,-2.595457 l -3.205285,3.74778 a 0.45772097,0.45127142 0 0 1 -0.278324,0.154815 l -0.233467,0.03646 a 0.45772097,0.45127142 0 0 1 -0.523688,-0.375123 l -0.03698,-0.230174 a 0.45772097,0.45127142 0 0 1 0.06334,-0.308815 l 2.624805,-4.163576 a 25.023715,24.671116 0 0 1 -4.226937,-4.185589 l -3.465587,1.981552 a 0.45772097,0.45127142 0 0 1 -0.301241,0.05534 l -0.0097,-0.0017 a 0.45772097,0.45127142 0 0 1 -0.380478,-0.516307 l 0.0017,-0.0096 a 0.45772097,0.45127142 0 0 1 0.146482,-0.265353 l 2.982419,-2.637203 a 25.023715,24.671116 0 0 1 -0.457645,-0.693753 1.8308839,1.8050856 0 0 1 -0.169107,-1.576007 l 0.163852,-0.443854 a 1.8308839,1.8050856 0 0 1 2.038404,-1.160283 l 0.513007,0.0892 a 1.8308839,1.8050856 0 0 1 1.231046,0.815298 z"
       style="display:inline;fill:#b2b2b2;fill-opacity:1;stroke:#7f7f7f;stroke-width:0.236717;stroke-opacity:1"
       id="path18"
       clip-path="none" />
  </g>
</svg>
